<?xml version="1.0" encoding="UTF-8"?>
<svg id="Layer_2" data-name="Layer 2" xmlns="http://www.w3.org/2000/svg" viewBox="0 0 23.99 23.99">
  <defs>
    <style>
      .cls-1 {
        fill: #000;
      }

      .cls-1, .cls-2 {
        stroke-width: 0px;
      }

      .cls-2 {
        fill: #fff;
      }
    </style>
  </defs>
  <g id="Layer_2-2" data-name="Layer 2">
    <circle class="cls-2" cx="12" cy="11.99" r="11.78"/>
    <g id="Layer_4" data-name="Layer 4">
      <g>
        <path class="cls-1" d="M0,11.97C.02,6.29,3.92,1.37,9.41.28c4.85-.96,8.96.51,12.12,4.44,1.64,2.05,2.49,4.46,2.46,7.11-.07,5.12-2.47,8.76-6.93,10.99-1.8.9-3.74,1.27-5.73,1.14C4.57,23.52-.05,17.98,0,11.97ZM10.65,1.31c.05.23.23.3.36.42.82.7,1.42,1.55,1.71,2.61.11.39.29.57.66.69,1.07.34,2.08.78,2.82,1.7.22.28.55.43.87.57.77.36,1.54.7,2.31,1.05.29.13.56.31.79.54.23.24.34.51.25.85-.07.26-.02.49.04.75.24.96.12,1.89-.37,2.75-.15.26-.22.54-.27.85.66.29,1.29.61,1.89.99q.67.44.89-.37c.55-2.06.48-4.09-.18-6.11-1.56-4.78-6.05-7.84-11.23-7.52-.19,0-.39.03-.54.23ZM18.99,9.1c-.27-.28-.5-.42-.76-.51-.39-.14-.78-.3-1.17-.42-.81-.25-1.54-.62-2.18-1.18-.33-.29-.71-.49-1.11-.66-.95-.39-1.91-.79-2.96-.72-.76.05-1.47.25-2.03.84-1.02,1.1-1.07,2.95-.1,4.17.46.58,1.03,1.02,1.66,1.39.82.48,1.7.83,2.54,1.26.27.14.53.28.81.42.11-.14.19-.25.27-.36.33-.46.76-.72,1.33-.77.36-.03.72-.02,1.08,0,.49.04.97.04,1.45-.07.48-.11.72-.44.74-.99.02-.51-.21-.83-.69-.97-.12-.03-.24-.05-.36-.09-.43-.12-.73-.51-.75-.96-.01-.34.12-.48.45-.44.18.02.35.07.53.1.39.06.79.09,1.27-.06l-.02.02ZM14.42,22.65c.11-.02.22-.05.32-.07,1.19-.28,2.27-.79,3.3-1.46.71-.47.74-.57.24-1.29-1.13-1.63-2.57-2.92-4.26-3.92-1.08-.64-2.22-1.15-3.33-1.73-.88-.46-1.7-1-2.35-1.79-.81-.97-1.12-2.13-1.22-3.37-.02-.24.02-.57-.29-.64-.33-.07-.43.27-.54.49-.42.9-.5,1.86-.3,2.82.29,1.41,1.05,2.54,2.05,3.53.54.53,1.13,1,1.72,1.47,1.83,1.44,3.25,3.19,4.08,5.42.05.13.12.25.21.36.1.12.21.18.37.18ZM10.84,22.88c.7.03.8-.1.67-.63-.04-.15-.09-.3-.15-.44-.27-.66-.64-1.25-1.03-1.84-.67-1-1.54-1.81-2.33-2.71-.83-.95-1.69-1.88-2.32-2.99-.64-1.12-1.08-2.3-.74-3.64.02-.08.02-.17,0-.25-.04-.25-.22-.32-.42-.19-.11.07-.18.17-.26.27-.28.4-.45.85-.54,1.32-.49,2.47-.28,4.9.44,7.3.15.49.37.95.77,1.29,1.76,1.48,3.8,2.29,5.91,2.51ZM1,12.02c0,1.14.17,2.26.54,3.34.04.13.08.3.26.28.18-.01.26-.16.28-.32.03-.17.03-.34.03-.51,0-1.1.08-2.18.44-3.22.58-1.68,1.7-2.89,3.17-3.8.12-.07.24-.14.35-.23.09-.07.15-.17.12-.3s-.15-.17-.26-.17c-.17,0-.33,0-.49.04-1.55.32-2.86,1.1-3.97,2.25-.15.16-.23.35-.27.56-.13.68-.21,1.37-.2,2.07h0ZM21.58,17.15s-.01-.11-.05-.16c-.53-.76-1.13-1.43-1.97-1.83-.29-.14-.42-.05-.51.27-.19.65-.51,1.12-1.27,1.09-.25-.01-.29.13-.12.36.2.27.43.52.62.8.37.53.66,1.11.95,1.69.23.46.38.48.74.11.56-.57,1.04-1.21,1.45-1.9.07-.12.14-.24.17-.42h-.01ZM8.62,5.05c-.06-.21-.24-.24-.39-.31-1.27-.52-2.57-.63-3.91-.34-.12.03-.25.05-.34.15-.51.51-.95,1.07-1.32,1.68-.13.22,0,.39.25.35.18-.03.34-.1.51-.17.95-.34,1.92-.59,2.93-.4.6.11,1.11.03,1.55-.43.21-.22.53-.3.71-.54h.01ZM11.7,4.63c.06-.21-.07-.37-.18-.53-.72-1.08-1.72-1.78-2.91-2.2-.19-.07-.4-.12-.61-.06-.6.18-1.15.48-1.68.82-.07.04-.14.1-.13.2.02.11.1.17.2.19.08.02.16.03.25.04,1.13.16,2.16.58,3.03,1.35.13.12.28.17.45.16.42-.02.83,0,1.24.07.1.02.22.06.33-.04h.01ZM17.58,15.63c.14-.02.32-.03.5-.08s.36-.12.39-.34c.05-.32.22-.58.38-.84.18-.29.24-.6.15-.93-.11-.4-.38-.52-.72-.3-.31.2-.64.25-.98.29s-.69.06-1.03.08c-.21.01-.41.07-.59.18-.39.24-.45.73-.15,1.06.17.18.35.36.52.54.14.15.32.23.51.25.33.04.66.06,1.03.09h-.01ZM19.71,10.6c-.22.17-.55.2-.54.54.01.28.02.57-.02.85,0,.08-.02.18.06.23.19.14.29.37.49.58.24-.76.34-1.47,0-2.2h.01Z"/>
        <path class="cls-1" d="M14.2,8.2c-.01.08-.02.22-.06.36-.13.5-.29.56-.72.28-.32-.21-.69-.27-1.04-.4-.27-.1-.6-.17-.6-.55s.36-.41.63-.49c.35-.1.71-.11,1.07-.07.5.06.7.3.71.88h.01Z"/>
      </g>
    </g>
  </g>
</svg>