<?xml version="1.0" encoding="UTF-8"?>
<svg id="Layer_2" data-name="Layer 2" xmlns="http://www.w3.org/2000/svg" viewBox="0 0 24 24">
  <defs>
    <style>
      .cls-1 {
        fill: #fff;
        stroke-width: 0px;
      }
    </style>
  </defs>
  <g id="Layer_4" data-name="Layer 4">
    <g>
      <path class="cls-1" d="M0,11.95C.02,6.28,3.89,1.37,9.35.28c4.82-.96,8.9.51,12.04,4.44,1.63,2.04,2.48,4.45,2.44,7.1-.07,5.11-2.45,8.74-6.88,10.97-1.79.9-3.71,1.27-5.69,1.14C4.55,23.49-.05,17.95,0,11.95ZM10.58,1.32c.05.23.23.3.36.42.81.7,1.41,1.55,1.7,2.6.11.39.29.57.66.69,1.06.33,2.06.78,2.8,1.7.22.28.55.43.86.57.76.35,1.53.7,2.3,1.05.29.13.56.31.78.54.23.24.34.51.25.85-.07.26-.02.49.04.75.24.96.12,1.88-.37,2.74-.15.26-.22.54-.27.85.66.29,1.29.6,1.88.99.66.44.67.43.88-.37.54-2.05.48-4.08-.18-6.1-1.55-4.77-6.01-7.82-11.16-7.51-.19.01-.39.03-.53.23ZM18.87,9.09c-.27-.28-.5-.42-.76-.51-.39-.14-.77-.3-1.17-.42-.8-.25-1.53-.62-2.17-1.18-.33-.29-.71-.49-1.1-.66-.95-.39-1.89-.79-2.94-.72-.76.05-1.46.25-2.01.84-1.01,1.1-1.06,2.94-.1,4.17.46.58,1.03,1.02,1.65,1.39.81.48,1.69.83,2.52,1.26.27.14.53.28.8.42.1-.14.19-.25.27-.36.33-.46.76-.72,1.32-.77.36-.03.71-.02,1.07,0,.48.04.96.04,1.44-.07.47-.11.72-.44.74-.98.02-.51-.21-.83-.69-.96-.12-.03-.24-.05-.36-.09-.42-.12-.73-.51-.74-.96-.01-.34.12-.48.44-.44.18.02.35.07.53.1.39.06.78.09,1.26-.06ZM14.33,22.62c.11-.02.21-.05.32-.07,1.18-.28,2.26-.79,3.28-1.46.71-.47.73-.57.24-1.28-1.13-1.63-2.55-2.92-4.23-3.92-1.07-.64-2.21-1.15-3.31-1.73-.87-.46-1.69-1-2.34-1.78-.8-.97-1.12-2.12-1.21-3.36-.02-.24.02-.57-.29-.64-.33-.07-.43.27-.53.49-.42.9-.5,1.85-.3,2.82.29,1.4,1.05,2.54,2.04,3.52.54.53,1.12,1,1.71,1.46,1.82,1.43,3.23,3.18,4.05,5.41.05.13.12.25.21.36.1.12.21.18.36.18ZM10.78,22.85c.69.03.8-.1.66-.63-.04-.15-.09-.3-.15-.44-.27-.66-.63-1.25-1.03-1.83-.67-.99-1.53-1.81-2.32-2.7-.83-.94-1.68-1.88-2.31-2.98-.64-1.12-1.07-2.3-.73-3.63.02-.08.02-.17,0-.25-.04-.25-.21-.32-.42-.19-.11.07-.18.17-.25.27-.28.4-.44.85-.54,1.32-.48,2.47-.28,4.89.44,7.28.15.49.37.95.77,1.28,1.75,1.48,3.77,2.28,5.87,2.5ZM.99,12.01c-.01,1.14.17,2.25.53,3.33.04.13.08.3.26.28.17-.01.26-.16.28-.32.03-.17.03-.34.03-.51,0-1.1.08-2.18.44-3.22.58-1.68,1.69-2.89,3.15-3.79.12-.07.24-.14.35-.23.09-.07.15-.17.12-.3-.03-.13-.15-.17-.26-.17-.16,0-.33,0-.49.04-1.54.32-2.84,1.1-3.94,2.25-.15.16-.23.35-.27.56-.12.68-.21,1.37-.2,2.06ZM21.45,17.12s-.01-.11-.05-.16c-.52-.75-1.13-1.43-1.95-1.83-.29-.14-.42-.05-.51.27-.19.65-.51,1.12-1.26,1.09-.25-.01-.29.13-.12.36.2.27.42.52.61.8.36.53.65,1.11.94,1.69.23.46.38.48.73.11.55-.57,1.03-1.21,1.44-1.9.07-.12.14-.24.17-.42ZM8.56,5.05c-.06-.21-.24-.24-.39-.3-1.26-.52-2.55-.63-3.88-.34-.12.03-.25.05-.34.15-.51.5-.94,1.07-1.31,1.68-.13.22,0,.39.25.35.17-.03.34-.1.51-.17.94-.34,1.91-.58,2.91-.4.6.11,1.1.03,1.54-.43.21-.22.52-.3.71-.54ZM11.62,4.63c.05-.21-.07-.37-.17-.52-.71-1.08-1.71-1.78-2.89-2.2-.19-.07-.4-.12-.61-.06-.6.18-1.14.48-1.67.81-.07.04-.14.1-.12.2.02.11.1.17.2.19.08.02.16.03.24.04,1.13.16,2.15.57,3.02,1.35.13.12.28.17.45.16.41-.02.82,0,1.23.07.1.02.22.06.33-.04ZM17.47,15.61c.14-.02.32-.03.49-.08.17-.05.35-.12.38-.34.05-.32.21-.58.38-.84.18-.29.24-.6.15-.93-.11-.39-.38-.52-.72-.3-.3.2-.64.25-.98.29-.34.04-.68.06-1.03.08-.21.01-.41.07-.59.18-.38.24-.45.73-.15,1.06.17.18.35.36.52.54.14.15.32.23.51.25.33.04.66.06,1.02.09ZM19.59,10.59c-.22.17-.55.2-.54.54.01.28.02.56-.02.85,0,.08-.02.18.06.23.19.14.28.37.49.57.24-.76.33-1.46,0-2.19Z"/>
      <path class="cls-1" d="M14.11,8.19c-.01.08-.02.22-.06.36-.13.5-.29.56-.71.28-.32-.21-.69-.27-1.03-.4-.27-.1-.6-.17-.59-.54,0-.38.36-.41.63-.49.35-.1.71-.11,1.06-.07.5.06.7.3.71.87Z"/>
    </g>
  </g>
</svg>